<svg xmlns="http://www.w3.org/2000/svg" viewBox="0 0 112 111">
<style>
  .st9{
    fill: #fff;
  }
</style>
<path class="st9" d="M294.55,343a37.6,37.6,0,0,1,11.74,1.76c22.71,7.46,34,35.13,25.2,55.21a4.42,4.42,0,0,0,.91,3.89c9.78,9.74,19.71,19.34,29.6,29a2.83,2.83,0,0,1,.37,2.12,16,16,0,0,1-2.75,7.73c-3.13,4.65-6.95,8.58-12.69,10.56-3.16,1.09-5.55.77-8-1.78-8.12-8.35-16.64-16.31-24.64-24.76-3.15-3.32-5.78-4-10.28-2.65-21.73,6.54-44.72-6.09-51.38-27.77a41.49,41.49,0,0,1,27.31-51.65l0,0a27.36,27.36,0,0,1,6.46-1.4c2.07-.18,4.14-0.23,6.21-0.23h1.91Zm25.56,41.41a27.51,27.51,0,0,0-55-.36A27.51,27.51,0,0,0,320.11,384.45Z" transform="translate(-250.78 -343.04)"/></svg>
